<?xml version="1.0" standalone="no"?>
<!DOCTYPE svg PUBLIC "-//W3C//DTD SVG 20010904//EN"
 "http://www.w3.org/TR/2001/REC-SVG-20010904/DTD/svg10.dtd">
<svg version="1.0" xmlns="http://www.w3.org/2000/svg"
 width="582.000000pt" height="582.000000pt" viewBox="0 0 582.000000 582.000000"
 preserveAspectRatio="xMidYMid meet">
<metadata>
Created by potrace 1.14, written by Peter Selinger 2001-2017
</metadata>
<g transform="translate(0.000000,582.000000) scale(0.100000,-0.100000)"
fill="#000000" stroke="none">
<path d="M3195 5273 c-369 -33 -851 -149 -1215 -293 -52 -20 -126 -47 -164
-60 -73 -24 -111 -52 -102 -76 3 -9 -4 -16 -22 -20 -454 -103 -776 -302 -904
-560 -38 -77 -42 -94 -46 -174 -5 -94 -6 -88 57 -201 33 -60 53 -139 41 -160
-5 -6 -44 -49 -88 -94 -91 -93 -141 -181 -173 -304 -14 -54 -18 -91 -14 -129
l7 -53 -49 8 c-76 13 -303 9 -346 -6 -21 -7 -45 -23 -53 -37 -15 -22 -14 -27
9 -76 31 -67 115 -186 203 -289 56 -66 240 -240 300 -284 15 -11 15 -16 -5
-69 -11 -31 -21 -73 -21 -93 0 -91 80 -182 270 -308 428 -283 853 -475 1223
-552 l135 -28 -20 -38 c-10 -21 -28 -84 -38 -139 -22 -114 -35 -139 -81 -158
-40 -17 -105 -5 -213 40 -92 38 -167 86 -266 170 -77 65 -198 130 -317 169
-71 24 -201 28 -265 9 -59 -18 -133 -89 -167 -161 -52 -111 -65 -185 -65 -357
1 -359 97 -487 364 -484 80 1 90 4 180 48 114 57 130 57 269 -4 156 -68 226
-83 362 -78 l116 4 -24 -81 c-21 -70 -98 -308 -111 -342 -3 -9 10 -13 45 -13
l50 0 56 178 c61 189 89 302 106 422 31 215 43 332 51 503 8 175 10 192 35
244 l28 55 23 -28 c31 -38 137 -255 165 -336 17 -51 20 -77 15 -138 -22 -291
-16 -360 42 -484 66 -140 140 -171 341 -141 61 9 120 14 129 12 12 -3 10 -5
-6 -6 -13 0 -21 -4 -19 -9 3 -4 -4 -25 -15 -47 -11 -22 -27 -62 -35 -90 -8
-27 -19 -54 -23 -60 -4 -5 -11 -25 -15 -43 l-7 -32 676 0 c691 0 709 1 848 41
111 32 137 79 145 269 10 238 -59 479 -234 810 -1 3 15 16 37 29 46 29 164
161 236 266 62 90 107 174 150 279 l33 79 69 -106 c37 -58 105 -177 150 -265
46 -87 96 -172 112 -187 39 -37 89 -39 126 -4 34 32 84 132 127 255 19 54 53
148 76 207 209 547 230 1330 54 1997 -98 372 -216 667 -344 861 -85 128 -281
322 -414 411 -267 177 -563 280 -935 323 -114 14 -526 19 -645 8z m760 -116
c247 -44 391 -89 590 -187 284 -141 507 -357 650 -632 211 -405 364 -1065 365
-1569 l0 -116 -37 18 c-60 29 -137 40 -291 40 l-143 -1 7 33 c13 55 7 266 -10
392 -36 253 -142 562 -250 724 -55 84 -272 307 -381 393 -402 315 -944 561
-1438 652 -226 42 -557 54 -852 31 -59 -5 -59 -5 60 36 249 84 548 153 810
188 219 30 207 29 505 26 238 -3 294 -7 415 -28z m-1067 -323 c414 -54 940
-257 1310 -506 281 -188 516 -417 605 -586 144 -275 235 -695 206 -950 -10
-87 -17 -102 -54 -102 -11 0 -34 -9 -52 -20 -39 -23 -47 -52 -63 -210 -39
-396 -70 -573 -126 -710 -105 -260 -309 -526 -428 -560 -28 -8 -79 -11 -135
-8 -76 3 -98 9 -157 39 -37 18 -72 41 -78 50 -12 21 -3 39 195 405 305 565
451 888 515 1139 38 149 37 227 -2 320 -79 185 -312 444 -624 692 -186 148
-203 158 -274 157 -81 -2 -182 -36 -461 -154 -425 -181 -539 -224 -727 -270
-158 -39 -289 -53 -457 -48 -171 4 -174 6 -172 103 3 135 67 261 225 437 52
59 99 116 105 127 17 30 13 66 -9 86 -41 37 -207 -8 -253 -69 -13 -17 -48 -78
-77 -135 l-53 -103 -46 6 c-307 44 -640 59 -796 37 -49 -7 -108 -11 -130 -9
l-40 3 0 86 c0 78 4 92 35 155 42 83 164 211 260 274 193 124 473 220 770 263
170 25 188 27 350 37 141 8 156 11 170 30 15 21 20 21 183 16 93 -4 221 -13
285 -22z m-1343 -929 c163 -17 313 -39 321 -47 3 -3 -2 -23 -10 -44 -34 -88
-48 -242 -28 -294 15 -39 61 -79 101 -87 20 -5 122 -8 226 -7 165 1 207 5 318
28 190 39 386 108 738 259 320 137 458 187 518 187 37 0 74 -24 231 -151 319
-256 544 -514 596 -682 16 -51 16 -66 5 -134 -17 -103 -78 -287 -101 -308 -29
-26 -40 -12 -114 141 -54 109 -77 145 -128 197 -75 76 -169 125 -315 164 -85
22 -119 26 -253 27 -145 0 -160 -2 -230 -27 -134 -49 -180 -96 -180 -186 0
-81 74 -253 149 -349 93 -118 211 -178 402 -207 206 -31 350 -15 487 54 45 23
87 41 93 41 8 0 10 -16 6 -52 -7 -53 -136 -328 -280 -593 -72 -133 -70 -132
-178 -134 -95 -2 -228 -30 -359 -76 -148 -52 -244 -78 -360 -100 -732 -133
-1328 -18 -2027 392 -360 210 -473 303 -473 390 0 15 31 91 70 168 73 145 120
294 120 380 l0 42 63 -13 c83 -18 316 -18 410 0 98 19 144 43 200 106 153 170
95 407 -140 576 -81 59 -192 98 -333 119 -118 17 -140 26 -140 54 0 9 -11 47
-25 85 -13 39 -23 71 -21 73 2 2 45 10 97 18 112 17 321 13 544 -10z m-236
-367 c85 -43 188 -144 226 -222 51 -104 34 -206 -47 -283 -43 -42 -86 -59
-181 -72 -314 -44 -605 50 -647 209 -14 51 -4 93 23 98 9 2 40 -17 70 -42 63
-56 109 -70 200 -62 106 10 177 56 211 138 24 56 20 103 -14 170 -30 59 -36
88 -22 102 15 17 117 -4 181 -36z m-742 -480 c41 -12 69 -31 142 -99 102 -95
106 -105 75 -223 -18 -69 -73 -206 -82 -206 -27 0 -274 239 -357 345 -94 120
-131 185 -114 197 20 13 274 3 336 -14z m3117 6 c21 -8 20 -28 -3 -89 -31 -81
-36 -139 -17 -189 21 -54 98 -128 150 -146 89 -29 248 13 295 78 12 17 26 57
32 89 6 32 14 62 19 67 23 23 133 -160 146 -245 8 -47 -28 -89 -110 -132 l-61
-32 -175 0 c-193 0 -245 9 -350 58 -122 57 -226 193 -274 359 -29 96 -13 120
111 164 67 23 197 33 237 18z m1789 -469 c66 -33 52 -76 -74 -231 -70 -86
-151 -168 -200 -200 -26 -18 -59 -27 -124 -35 -49 -5 -109 -19 -133 -29 -25
-11 -47 -19 -49 -16 -6 6 44 507 52 514 13 13 130 20 310 18 154 -2 185 -5
218 -21z m65 -277 c-20 -205 -74 -422 -167 -673 -97 -262 -104 -280 -129 -324
l-26 -44 -18 23 c-10 13 -16 31 -13 40 3 9 12 55 21 101 8 46 19 107 24 134
19 98 41 251 46 315 2 36 6 89 9 118 3 29 1 61 -4 71 -8 14 3 30 60 87 39 38
100 106 136 152 37 45 67 82 68 82 0 0 -3 -37 -7 -82z m-1568 -711 c0 -2 -34
-71 -76 -153 -64 -125 -75 -154 -70 -183 16 -100 197 -186 379 -180 76 3 71 7
126 -96 143 -262 218 -627 166 -803 -14 -48 -19 -52 -57 -62 -220 -60 -556
-64 -851 -11 -131 24 -169 44 -275 143 -86 81 -164 128 -214 128 -28 0 -28 0
-8 20 27 27 57 88 71 146 14 58 71 175 93 194 41 33 196 20 316 -27 36 -14
111 -53 168 -85 108 -63 169 -81 190 -56 19 24 25 123 14 248 -12 130 -1 113
-142 217 -51 38 -71 61 -95 108 -28 56 -30 67 -30 175 0 115 17 201 47 243 8
11 35 20 73 26 61 9 175 14 175 8z m-375 -112 c-8 -26 -15 -64 -15 -84 0 -28
-9 -46 -43 -81 -23 -25 -48 -57 -55 -70 -7 -14 -28 -50 -47 -80 -43 -69 -135
-255 -135 -272 0 -9 -3 -9 -10 2 -8 12 -10 9 -10 -12 0 -23 5 -27 33 -31 31
-4 31 -4 -5 -5 -36 -2 -38 0 -38 27 0 81 -58 172 -134 207 -106 49 -235 20
-342 -78 l-47 -43 50 70 c27 39 85 117 129 175 43 58 87 124 97 146 l19 41
101 17 c137 23 328 70 402 99 33 13 61 23 62 23 1 -1 -4 -24 -12 -51z m-2347
-110 c2 -2 -5 -16 -16 -30 -35 -45 -64 -135 -69 -220 -11 -169 51 -254 163
-224 62 18 122 95 110 143 -10 42 -50 35 -84 -14 -28 -41 -66 -60 -83 -43 -20
20 -27 125 -13 191 14 66 55 149 79 158 24 9 180 -75 226 -122 44 -45 44 -45
44 -117 0 -94 -41 -220 -107 -330 -63 -105 -87 -129 -178 -180 -69 -39 -81
-42 -150 -42 -141 0 -212 38 -244 132 -29 81 -42 258 -28 376 21 192 83 302
183 328 31 7 158 3 167 -6z m1682 -5 c-6 -10 -34 -50 -62 -87 -29 -37 -94
-125 -144 -195 l-92 -128 -7 38 c-9 47 -63 180 -118 285 -23 45 -44 86 -46 91
-2 5 42 6 100 3 57 -4 156 -3 219 2 63 4 125 9 138 9 20 2 21 -1 12 -18z
m-992 -374 c95 -30 138 -32 189 -11 20 8 39 13 42 10 6 -6 -23 -291 -41 -398
-13 -82 -13 -82 -188 -82 l-125 0 -145 59 c-80 33 -146 60 -148 61 -2 2 11 23
27 48 42 61 85 150 109 222 19 59 25 83 37 157 l6 38 77 -39 c42 -21 114 -50
160 -65z m1173 1 c47 -31 64 -70 63 -142 0 -48 -7 -74 -36 -130 -20 -39 -48
-110 -62 -157 -31 -99 -52 -123 -152 -170 -88 -41 -162 -55 -199 -37 -80 38
-145 289 -100 382 9 18 41 50 72 72 31 22 88 68 126 102 38 34 88 71 111 82
58 28 134 27 177 -2z"/>
<path d="M1703 2935 c-56 -24 -58 -42 -24 -221 36 -186 80 -289 161 -377 131
-143 310 -202 650 -214 280 -9 373 20 433 137 51 101 31 228 -52 323 -50 57
-151 88 -503 158 -210 41 -279 64 -398 133 -116 67 -208 88 -267 61z m188
-159 c20 -14 44 -41 53 -60 51 -107 40 -274 -21 -329 -20 -17 -21 -17 -46 12
-73 87 -112 335 -61 386 21 21 33 19 75 -9z m300 -105 c25 -25 29 -37 29 -85
0 -54 -20 -170 -41 -234 -12 -38 -59 -66 -92 -56 -47 14 -67 44 -67 100 0 88
66 269 107 293 26 15 32 14 64 -18z m286 -66 c36 -24 46 -60 38 -140 -11 -120
-25 -165 -60 -204 -30 -32 -39 -36 -83 -36 -89 0 -115 50 -92 179 20 113 40
167 71 199 25 25 35 29 66 24 19 -3 46 -13 60 -22z m303 -103 c38 -38 46 -88
26 -150 -24 -73 -76 -112 -146 -112 -52 0 -63 23 -58 119 6 100 21 139 63 157
49 21 83 17 115 -14z"/>
</g>
</svg>
